<svg id="SvgjsSvg1001" width="288" height="288" xmlns="http://www.w3.org/2000/svg" version="1.1" xmlns:xlink="http://www.w3.org/1999/xlink" xmlns:svgjs="http://svgjs.com/svgjs"><defs id="SvgjsDefs1002"></defs><g id="SvgjsG1008" transform="matrix(1,0,0,1,0,0)"><svg xmlns="http://www.w3.org/2000/svg" viewBox="0 0 800.74 165.23" width="288" height="288"><polygon points="284.02 78.91 284.02 165.23 252.95 165.23 252.95 78.96 252.93 78.94 252.96 78.91 284.02 78.91" fill="#bababa" class="svgShape color000000-0 selectable"></polygon><polygon points="249.8 72.61 249.81 72.61 249.78 72.64 236.22 64.03 196.85 39.05 183.89 30.81 183.93 30.72 176.86 26.23 193.54 0 265.29 45.6 265.32 45.58 249.8 72.61" fill="#bababa" class="svgShape color000000-1 selectable"></polygon><polygon points="343.46 0 336.64 4.34 336.63 4.33 323.67 12.54 287.17 35.69 271.64 45.57 287.17 72.61 360.13 26.23 343.46 0" fill="#bababa" class="svgShape color000000-2 selectable"></polygon><path d="M137.48 78.74c17.02-20.26 14.4-50.49-5.86-67.51C122.98 3.98 112.07 0 100.79 0H0v165.23h109.05c26.46 0 47.92-21.45 47.92-47.92 0-15.22-7.23-29.54-19.49-38.57zM33.05 26.44h61.13c11.86 0 21.48 9.62 21.48 21.48s-9.62 21.48-21.48 21.48h-61.13V26.44zm69.4 112.36H33.05v-42.96h69.4c11.86 0 21.48 9.62 21.48 21.48s-9.62 21.48-21.48 21.48zM727.27 14.45c-11.65-11.99-31.31-14.45-48.03-14.45h-123.92v165.23h123.92c16.72 0 36.38-2.46 48.03-14.45 16.85-16.38 18.06-44.66 18.06-68.16s-1.21-51.78-18.06-68.16zm-27.27 114.52c-7.92 8.15-21.29 9.83-32.66 9.83h-78.98V26.44h78.98c11.37 0 24.74 1.68 32.66 9.83 11.46 11.14 12.28 30.37 12.28 46.35s-.82 35.21-12.28 46.35zM519.79 138.79h-99.96V7.44c0-.16-.04-.3-.05-.46V0h-33.05v165.23h140.49v-26.44h-7.44zM796.56 23.93c-2.71 2.62-5.96 3.93-9.75 3.93s-7.22-1.34-9.9-4.03c-2.68-2.68-4.03-5.98-4.03-9.9s1.45-7.45 4.35-10.15c2.72-2.52 5.92-3.78 9.58-3.78s7.13 1.36 9.85 4.08c2.72 2.72 4.08 6 4.08 9.85s-1.39 7.29-4.18 10zm-17.94-18.07c-2.22 2.27-3.33 4.96-3.33 8.07s1.13 5.97 3.38 8.22c2.24 2.26 4.95 3.38 8.13 3.38s5.87-1.13 8.11-3.4c2.24-2.28 3.36-5.01 3.36-8.2s-1.12-5.79-3.35-8.07c-2.26-2.32-4.96-3.48-8.13-3.48s-5.93 1.16-8.18 3.48zm2.08 15.82V6.24c.96 0 2.39 0 4.3 0s2.97.02 3.18.03c1.22.09 2.24.35 3.04.79 1.37.76 2.06 1.98 2.06 3.69 0 1.3-.36 2.24-1.09 2.81-.72.58-1.62.92-2.67 1.03.97.2 1.7.5 2.19.89.91.73 1.36 1.89 1.36 3.46v1.38c0 .15 0 .3.03.45.02.15.06.3.11.45l.14.43h-3.86c-.13-.49-.21-1.2-.26-2.14s-.13-1.56-.26-1.89c-.2-.54-.58-.92-1.13-1.13-.3-.13-.76-.21-1.38-.25l-.89-.06h-.85v5.46h-4.04zm7.37-12.4c-.55-.21-1.34-.32-2.34-.32h-.98v4.48h1.57c.94 0 1.68-.19 2.21-.57.53-.38.79-.99.79-1.83s-.42-1.43-1.25-1.76z" fill="#bababa" class="svgShape color000000-3 selectable"></path></svg></g></svg>